<svg xmlns="http://www.w3.org/2000/svg" viewBox="0 0 200 200" role="img" aria-label="Cartoon figure doing a lunge"><title>Cartoon figure doing a lunge</title><rect width="200" height="200" rx="28" fill="#E6F0FF"/><circle cx="170" cy="32" r="13" fill="#FFD66B"/><rect x="16" y="170" width="168" height="6" rx="3" fill="#9DB4D6"/><path d="M100 124 L140 128 L140 166 L154 166" stroke="#334155" stroke-width="13" fill="none" stroke-linecap="round" stroke-linejoin="round"/><path d="M100 124 L70 160 L44 164" stroke="#334155" stroke-width="13" fill="none" stroke-linecap="round" stroke-linejoin="round"/><path d="M100 124 L100 78" stroke="#3B82F6" stroke-width="20" fill="none" stroke-linecap="round" stroke-linejoin="round"/><path d="M100 84 L110 104 L100 118" stroke="#F2C29B" stroke-width="9" fill="none" stroke-linecap="round" stroke-linejoin="round"/><circle cx="102" cy="58" r="16" fill="#F2C29B"/><path d="M86 56 A16 16 0 0 1 118 56 Q102 46 86 56Z" fill="#5B3A29"/><circle cx="109" cy="59" r="2" fill="#1F2937"/><path d="M107 66 Q112 68 115 64" stroke="#1F2937" stroke-width="2" fill="none" stroke-linecap="round"/></svg>
